<?xml version="1.0" encoding="UTF-8"?> <svg xmlns="http://www.w3.org/2000/svg" width="409" height="32" viewBox="0 0 409 32" fill="none"><path d="M42.5128 31.8755H5.84489C2.61777 31.8755 0 29.2265 0 25.9548V6.84746C0 3.57848 2.61777 0.926758 5.84489 0.926758H42.5128C45.7399 0.926758 48.3577 3.57848 48.3577 6.84746V25.9548C48.3577 29.2265 45.7399 31.8755 42.5128 31.8755Z" fill="#1A1E71"></path><path d="M21.5077 11.0078H20.9475L18.9609 21.8625H22.1279L24.0544 11.0078H21.5077Z" fill="white"></path><path d="M32.8756 18.3056C32.8756 17.0403 32.0667 16.0747 30.2032 15.2895C29.0856 14.7458 28.4024 14.446 28.4024 13.9022C28.4024 13.4194 28.9626 12.9366 30.2032 12.9366C31.2579 12.9366 32.0039 13.117 32.5641 13.3584L32.8756 13.4778L33.3729 11.1249C32.7526 10.8835 31.758 10.6421 30.5147 10.6421C27.4078 10.6421 25.1726 12.1488 25.1726 14.3213C25.1726 15.9501 26.7246 16.7936 27.9679 17.3374C28.8205 17.7114 29.2632 17.9979 29.4572 18.2977L29.2714 18.1226C29.3807 18.2287 29.4626 18.3215 29.52 18.4144C29.5637 18.5152 29.5829 18.616 29.5829 18.7247C29.5829 19.4489 28.5882 19.8097 27.7193 19.8097C26.476 19.8097 25.7928 19.6293 24.7381 19.2075L24.3036 19.0271L23.8691 21.4994C23.8719 21.4994 23.8746 21.5021 23.8801 21.5021L23.8691 21.5578C24.6151 21.8602 25.9814 22.1599 27.4105 22.1599C29.3971 22.1599 31.0147 21.6161 31.9465 20.6532L31.911 20.6187C32.5313 20.006 32.8756 19.2181 32.8756 18.3056Z" fill="white"></path><path d="M15.2272 20.8678L19.7687 11.0689H17.0362H16.4159L14.2544 16.2097L14.2408 16.1965L13.2461 18.4884L12.9975 16.9817C12.9456 16.8145 12.8854 16.6474 12.8117 16.4803L11.817 11.9177C11.6312 11.1936 11.071 11.0132 10.3879 11.0132H4.61133L6.59242 11.6047C7.32474 11.8753 8.02153 12.1963 8.66641 12.5597L11.3798 21.9289H14.7354L14.7627 21.8679H14.7982L15.2272 20.8678Z" fill="white"></path><path d="M42.6911 17.4617L41.1391 11.0078H39.4613H38.7153C37.9693 11.0078 37.4119 11.0688 37.1004 11.793L32.4414 21.8651H32.8759H35.797L36.4172 20.056H40.3931L40.7647 21.8651H43.7459L42.6911 17.4617ZM38.964 13.9629L39.1498 14.9868C39.1498 14.9868 39.7345 17.5387 39.8821 18.2443H37.2862C37.4501 17.849 37.9338 16.597 38.248 15.7799C38.2617 15.7402 38.2781 15.703 38.2918 15.6659C38.3191 15.5916 38.3464 15.5226 38.371 15.4616C38.4694 15.2096 38.5295 15.0478 38.5295 15.0478C38.5295 15.0478 38.565 14.955 38.6169 14.8144C38.7071 14.5836 38.8492 14.2255 38.964 13.9629Z" fill="white"></path><g clip-path="url(#clip0_412_19329)"><path d="M115.217 31.8757H77.5711C74.2579 31.8757 71.5703 29.2267 71.5703 25.9549V6.84749C71.5703 3.57849 74.2579 0.926758 77.5711 0.926758H115.217C118.53 0.926758 121.218 3.57849 121.218 6.84749V25.9549C121.218 29.2267 118.53 31.8757 115.217 31.8757Z" fill="#F1EFEA"></path><path d="M86.4067 28.3163V26.7219C86.4432 26.2016 86.0448 25.7476 85.5146 25.7116C85.4725 25.7089 85.4332 25.7089 85.3911 25.7116C85.0292 25.6895 84.6814 25.8611 84.485 26.1628C84.3054 25.8694 83.98 25.695 83.6321 25.7116C83.3292 25.6978 83.043 25.839 82.8775 26.0881V25.7753H82.3164V28.3163H82.8831V26.9185C82.8382 26.5919 83.0683 26.2929 83.3993 26.2486C83.4358 26.2431 83.475 26.2431 83.5143 26.2431C83.8874 26.2431 84.0754 26.4811 84.0754 26.9129V28.3274H84.6421V26.9185C84.5972 26.5919 84.8329 26.2901 85.1639 26.2486C85.2004 26.2431 85.2368 26.2431 85.2733 26.2431C85.6548 26.2431 85.84 26.4811 85.84 26.9129V28.3274L86.4067 28.3163ZM94.7808 25.7753H93.8578V25.003H93.2911V25.7753H92.7778V26.2818H93.2996V27.4527C93.2996 28.0423 93.5324 28.3938 94.1945 28.3938C94.4414 28.3938 94.6854 28.3274 94.8958 28.1973L94.7331 27.724C94.5816 27.8125 94.4133 27.8624 94.2366 27.8679C93.9672 27.8679 93.8634 27.699 93.8634 27.4416V26.2818H94.7808V25.7753ZM99.5612 25.7116C99.2835 25.7033 99.0226 25.8473 98.8823 26.0853V25.7781H98.3268V28.3191H98.8879V26.8908C98.8879 26.4701 99.0703 26.2375 99.4266 26.2375C99.5472 26.2348 99.665 26.2569 99.7772 26.3012L99.9484 25.7698C99.8193 25.7255 99.6847 25.7006 99.55 25.7006L99.5612 25.7116ZM92.3317 25.9774C92.0147 25.7919 91.65 25.6978 91.2797 25.7116C90.626 25.7116 90.2024 26.0189 90.2024 26.5254C90.2024 26.9406 90.5138 27.1953 91.0917 27.2755L91.361 27.3115C91.6696 27.353 91.8127 27.4333 91.8127 27.5773C91.8127 27.7738 91.6079 27.8845 91.2264 27.8845C90.9178 27.8928 90.6176 27.7987 90.3679 27.6188L90.0986 28.0506C90.424 28.2748 90.8168 28.391 91.2151 28.38C91.9586 28.38 92.3906 28.034 92.3906 27.5496C92.3906 27.0652 92.0512 26.8686 91.4901 26.7884L91.2208 26.7524C90.9795 26.7192 90.7831 26.6721 90.7831 26.5033C90.7831 26.3344 90.9655 26.2043 91.2741 26.2043C91.5574 26.2071 91.8351 26.2818 92.082 26.423L92.3317 25.9774ZM107.349 25.7116C107.071 25.7033 106.81 25.8473 106.67 26.0853V25.7781H106.115V28.3191H106.676V26.8908C106.676 26.4701 106.858 26.2375 107.214 26.2375C107.335 26.2348 107.453 26.2569 107.565 26.3012L107.736 25.7698C107.607 25.7255 107.472 25.7006 107.338 25.7006L107.349 25.7116ZM100.125 27.0403C100.1 27.7489 100.661 28.344 101.379 28.3717C101.418 28.3744 101.46 28.3717 101.5 28.3717C101.836 28.3883 102.167 28.2803 102.428 28.0672L102.159 27.6215C101.965 27.7682 101.73 27.8485 101.486 27.8513C101.031 27.8153 100.692 27.4222 100.728 26.9711C100.762 26.5725 101.082 26.2542 101.486 26.2237C101.73 26.2265 101.965 26.3067 102.159 26.4535L102.428 26.0078C102.167 25.7947 101.836 25.6867 101.5 25.7033C100.782 25.6618 100.167 26.2043 100.125 26.9129C100.122 26.9517 100.122 26.9932 100.125 27.032V27.0403ZM105.377 27.0403V25.7753H104.816V26.0825C104.622 25.8362 104.322 25.6978 104.008 25.7089C103.264 25.7089 102.661 26.304 102.661 27.0375C102.661 27.771 103.264 28.3661 104.008 28.3661C104.322 28.3772 104.622 28.2388 104.816 27.9925V28.2997H105.377V27.0403ZM103.29 27.0403C103.315 26.6168 103.682 26.2929 104.114 26.3178C104.544 26.3427 104.872 26.7053 104.847 27.1316C104.821 27.5357 104.485 27.8541 104.072 27.8541C103.646 27.8596 103.295 27.5219 103.29 27.1012C103.287 27.0818 103.287 27.0624 103.29 27.0403ZM96.523 25.7116C95.7795 25.7227 95.1848 26.3261 95.1932 27.0596C95.2044 27.7932 95.816 28.38 96.5594 28.3717C96.9466 28.391 97.3281 28.2693 97.6283 28.0257L97.359 27.616C97.1458 27.7849 96.8821 27.879 96.6099 27.8817C96.2256 27.9149 95.8833 27.6381 95.8384 27.2589H97.7517C97.7517 27.1897 97.7517 27.1205 97.7517 27.0458C97.7517 26.2486 97.2496 25.7172 96.5286 25.7172L96.523 25.7116ZM96.523 26.2071C96.8764 26.1988 97.1682 26.4756 97.1766 26.8244H95.83C95.8497 26.4701 96.1555 26.196 96.5145 26.2071H96.523ZM110.57 27.0458V24.7539H110.031V26.0825C109.837 25.8362 109.537 25.6978 109.223 25.7089C108.48 25.7089 107.876 26.304 107.876 27.0375C107.876 27.771 108.48 28.3661 109.223 28.3661C109.537 28.3772 109.837 28.2388 110.031 27.9925V28.2997H110.57V27.0458ZM111.504 27.9482C111.537 27.9482 111.574 27.9537 111.608 27.9675C111.638 27.9814 111.667 27.998 111.692 28.0201C111.714 28.0423 111.734 28.07 111.748 28.1004C111.776 28.1641 111.776 28.2333 111.748 28.2969C111.734 28.3274 111.714 28.3551 111.692 28.3772C111.667 28.3993 111.638 28.4187 111.608 28.4298C111.574 28.4436 111.54 28.4519 111.504 28.4519C111.4 28.4519 111.305 28.391 111.263 28.2969C111.234 28.2333 111.234 28.1641 111.263 28.1004C111.277 28.07 111.296 28.0423 111.319 28.0201C111.344 27.998 111.372 27.9786 111.403 27.9675C111.439 27.9537 111.476 27.9482 111.512 27.9482H111.504ZM111.504 28.3966C111.532 28.3966 111.557 28.391 111.582 28.38C111.605 28.3689 111.627 28.3551 111.644 28.3385C111.714 28.2637 111.714 28.1475 111.644 28.0727C111.627 28.0561 111.605 28.0395 111.582 28.0312C111.557 28.0201 111.532 28.0146 111.504 28.0146C111.476 28.0146 111.451 28.0201 111.425 28.0312C111.4 28.0423 111.38 28.0561 111.361 28.0727C111.291 28.1475 111.291 28.2637 111.361 28.3385C111.38 28.3578 111.4 28.3717 111.425 28.38C111.453 28.391 111.481 28.3966 111.512 28.3966H111.504ZM111.521 28.081C111.546 28.081 111.571 28.0866 111.591 28.1032C111.608 28.117 111.616 28.1364 111.616 28.1585C111.616 28.1751 111.61 28.1945 111.596 28.2056C111.58 28.2194 111.56 28.2277 111.54 28.2305L111.619 28.3191H111.557L111.484 28.2305H111.459V28.3191H111.408V28.0838L111.521 28.081ZM111.462 28.1253V28.189H111.521C111.532 28.1917 111.543 28.1917 111.554 28.189C111.557 28.1807 111.557 28.1724 111.554 28.1641C111.557 28.1558 111.557 28.1475 111.554 28.1392C111.543 28.1364 111.532 28.1364 111.521 28.1392L111.462 28.1253ZM108.496 27.0458C108.522 26.6223 108.889 26.2984 109.321 26.3234C109.75 26.3483 110.079 26.7109 110.053 27.1371C110.028 27.5413 109.692 27.8596 109.279 27.8596C108.853 27.8651 108.502 27.5274 108.496 27.1067C108.494 27.0873 108.496 27.0652 108.496 27.0458ZM89.5684 27.0458V25.7753H89.0073V26.0825C88.8137 25.8362 88.5135 25.6978 88.1993 25.7089C87.4559 25.7089 86.8527 26.304 86.8527 27.0375C86.8527 27.771 87.4559 28.3661 88.1993 28.3661C88.5135 28.3772 88.8137 28.2388 89.0073 27.9925V28.2997H89.5684V27.0458ZM87.4812 27.0458C87.5064 26.6223 87.8739 26.2984 88.3059 26.3234C88.7352 26.3483 89.0634 26.7109 89.0382 27.1371C89.0129 27.5413 88.6763 27.8596 88.2639 27.8596C87.8374 27.8679 87.484 27.533 87.4755 27.1122C87.4755 27.0901 87.4755 27.0679 87.4783 27.0458H87.4812Z" fill="#231F20"></path><path d="M100.638 6.40186H92.1484V21.457H100.638V6.40186Z" fill="#FF5F00"></path><path d="M92.6869 13.9331C92.6841 10.9935 94.0503 8.21721 96.3928 6.40418C92.1791 3.13795 86.0802 3.85763 82.767 8.01515C79.4538 12.1727 80.186 18.1903 84.3998 21.4593C87.9177 24.1885 92.8721 24.1885 96.39 21.4593C94.0531 19.6435 92.6841 16.8699 92.6869 13.9331Z" fill="#EB001B"></path><path d="M112.094 13.9311C112.094 19.2179 107.749 23.5056 102.391 23.5056C100.216 23.5056 98.1039 22.7831 96.3926 21.4572C100.606 18.191 101.339 12.1706 98.0253 8.01311C97.5484 7.41245 96.9985 6.8727 96.3926 6.40214C100.606 3.13314 106.705 3.85559 110.018 8.01034C111.362 9.69881 112.094 11.7803 112.094 13.9311Z" fill="#F79E1B"></path><path d="M111.166 19.86V19.5528H111.292V19.4891H110.973V19.5528H111.11V19.86H111.166ZM111.789 19.86V19.4863H111.691L111.579 19.7521L111.466 19.4863H111.379V19.86H111.45V19.5804L111.553 19.8213H111.626L111.73 19.5804V19.8628L111.789 19.86Z" fill="#F79E1B"></path></g><g clip-path="url(#clip1_412_19329)"><path d="M187.507 31.8757H150.351C147.08 31.8757 144.428 29.2267 144.428 25.9549V6.84749C144.428 3.57849 147.08 0.926758 150.351 0.926758H187.507C190.777 0.926758 193.43 3.57849 193.43 6.84749V25.9549C193.43 29.2267 190.777 31.8757 187.507 31.8757Z" fill="#006FCF"></path><path d="M151.369 12.6658H152.851L152.111 10.7808L151.369 12.6658Z" fill="white"></path><path d="M159.248 18.9932V19.8679H161.74V20.809H159.248V21.8193H162.009L163.288 20.4048L162.078 18.9932H159.248Z" fill="white"></path><path d="M178.706 10.7808L177.9 12.6658H179.448L178.706 10.7808Z" fill="white"></path><path d="M166.451 22.3594V18.5229L164.701 20.4052L166.451 22.3594Z" fill="white"></path><path d="M169.751 19.5994C169.684 19.1952 169.413 18.9932 169.009 18.9932H167.594V20.2056H169.075C169.482 20.2028 169.751 20.0035 169.751 19.5994Z" fill="white"></path><path d="M174.463 20.0701C174.599 20.0036 174.665 19.8016 174.665 19.5995C174.732 19.331 174.599 19.1954 174.463 19.1289C174.327 19.0625 174.125 19.0625 173.926 19.0625H172.58V20.1393H173.926C174.128 20.1365 174.33 20.1365 174.463 20.0701Z" fill="white"></path><path d="M184.16 9.03125V9.8395L183.755 9.03125H180.59V9.8395L180.186 9.03125H175.878C175.138 9.03125 174.532 9.16688 173.992 9.43538V9.03125H170.963V9.09768V9.43538C170.625 9.16688 170.223 9.03125 169.684 9.03125H158.843L158.101 10.7142L157.362 9.03125H154.939H153.928V9.8395L153.59 9.03125H153.524H150.63L149.285 12.1951L147.737 15.6274L147.709 15.6938H147.737H151.17H151.214L151.239 15.6274L151.644 14.6171H152.519L152.923 15.6938H156.827V15.6274V14.8883L157.165 15.6966H159.117L159.455 14.8883V15.6274V15.6938H161.003H168.745H168.811V13.9444H168.947C169.083 13.9444 169.083 13.9444 169.083 14.1465V15.6274H173.931V15.2232C174.335 15.4253 174.942 15.6274 175.748 15.6274H177.769L178.173 14.5506H179.115L179.519 15.6274H183.423V14.9547V14.6171L184.03 15.6274H184.165H184.232H187.194V9.03125H184.16ZM161.335 14.6863H160.662H160.258V14.2821V10.9827L160.191 11.1377V11.1349L158.624 14.6835H158.574H158.214H157.633L156.016 10.9827V14.6835H153.726L153.255 13.6732H150.965L150.495 14.6835H149.312L151.303 9.97237H152.987L154.872 14.4814V9.97513H155.277H156.656L156.686 10.0416H156.689L157.539 11.8906L158.148 13.2746L158.17 13.2054L159.516 9.97513H161.335V14.6863ZM165.981 10.9827H163.356V11.8574H165.915V12.7985H163.356V13.7424H165.981V14.7527H162.21V9.97513H165.981V10.9827ZM170.783 12.7182C170.786 12.721 170.786 12.721 170.788 12.721C170.813 12.7487 170.835 12.7736 170.855 12.8013C170.985 12.9701 171.087 13.222 171.093 13.5901C171.093 13.5957 171.093 13.604 171.093 13.6095C171.093 13.6123 171.093 13.615 171.093 13.6206C171.093 13.6233 171.093 13.6233 171.093 13.6261C171.096 13.6621 171.096 13.7008 171.096 13.7424V14.6835H170.085V14.1437C170.085 13.8752 170.085 13.4711 169.883 13.2026C169.819 13.1389 169.756 13.0974 169.684 13.067C169.584 13.0005 169.39 13.0005 169.074 13.0005H167.862V14.6835H166.718V9.97513H169.276C169.883 9.97513 170.287 9.97513 170.622 10.1772C170.952 10.3765 171.151 10.7031 171.159 11.2235C171.143 11.9404 170.683 12.3335 170.354 12.4663C170.356 12.4636 170.581 12.5106 170.783 12.7182ZM173.051 14.6863H171.907V9.97513H173.051V14.6863ZM186.178 14.6863H184.697L182.543 11.1183V14.0801L182.534 14.0718V14.6863H181.396V14.6835H180.253L179.848 13.6732H177.492L177.088 14.7499H175.808C175.271 14.7499 174.596 14.6143 174.191 14.2129C173.787 13.8088 173.585 13.2718 173.585 12.3971C173.585 11.7245 173.721 11.0519 174.191 10.5121C174.526 10.108 175.133 9.97513 175.875 9.97513H176.952V10.9855H175.875C175.471 10.9855 175.269 11.0519 175 11.2539C174.798 11.456 174.665 11.8601 174.665 12.3307C174.665 12.8705 174.731 13.2054 175 13.4739C175.202 13.6759 175.471 13.7424 175.808 13.7424H176.279L177.827 10.0416H178.5H179.511L181.396 14.5506V14.3209V12.8013V12.6656V10.0416H183.08L185.032 13.3382V10.0416H186.178V14.6863Z" fill="white"></path><path d="M169.823 11.9351C169.842 11.913 169.862 11.8908 169.876 11.8631C169.936 11.7663 170.006 11.5919 169.97 11.3566C169.967 11.3344 169.964 11.3151 169.959 11.2957C169.959 11.2902 169.959 11.2846 169.956 11.2791C169.923 11.1628 169.837 11.0936 169.751 11.0493C169.615 10.9829 169.413 10.9829 169.211 10.9829H167.865V12.0597H169.211C169.413 12.0597 169.615 12.0597 169.751 11.9932C169.77 11.9822 169.79 11.9683 169.806 11.9545C169.809 11.9545 169.815 11.9462 169.823 11.9351Z" fill="white"></path><path d="M190.152 21.4153C190.152 20.9448 190.017 20.4742 189.817 20.1365V17.1083H189.815V16.9062C189.815 16.9062 186.993 16.9062 186.572 16.9062C186.151 16.9062 185.642 17.3104 185.642 17.3104V16.9062H182.546C182.075 16.9062 181.469 17.0419 181.2 17.3104V16.9062H175.679V17.1083V17.3104C175.275 16.9754 174.535 16.9062 174.198 16.9062H170.559V17.1083V17.3104C170.221 16.9754 169.416 16.9062 169.011 16.9062H164.971L164.03 17.9166L163.155 16.9062H162.873H162.413H157.094V17.1083V17.6398V23.7044H163.019L163.994 22.7301L164.839 23.7044H164.905H168.319H168.474H168.541H168.607V23.0318V22.1571H168.945C169.416 22.1571 170.022 22.1571 170.493 21.9551V23.638V23.7736H173.522V23.638V22.0243H173.658C173.86 22.0243 173.86 22.0243 173.86 22.2263V23.6408V23.7764H183.017C183.623 23.7764 184.23 23.6408 184.565 23.3723V23.6408V23.7764H187.461C188.067 23.7764 188.674 23.71 189.078 23.4387C189.698 23.0678 190.089 22.409 190.147 21.6229C190.15 21.6008 190.152 21.5759 190.155 21.5537L190.152 21.5509C190.15 21.5039 190.152 21.4596 190.152 21.4153ZM168.945 21.0112H167.599V21.2132V21.6174V22.0215V22.7606H165.387L164.099 21.2797L164.094 21.2852L164.03 21.2132L162.549 22.7606H158.237V18.0494H162.612L163.811 19.3587L164.063 19.6327L164.096 19.5967L165.511 18.0494H169.081C169.773 18.0494 170.548 18.221 170.842 18.9241C170.878 19.0625 170.897 19.2175 170.897 19.3947C170.897 20.7427 169.953 21.0112 168.945 21.0112ZM175.676 20.9448C175.812 21.1468 175.878 21.4153 175.878 21.8194V22.7606H174.735V22.1571C174.735 21.8886 174.735 21.4153 174.533 21.2132C174.397 21.0112 174.128 21.0112 173.724 21.0112H172.511V22.7606H171.368V17.983H173.926C174.463 17.983 174.937 17.983 175.272 18.1851C175.607 18.3871 175.878 18.7248 175.878 19.2618C175.878 20.0009 175.408 20.405 175.07 20.5406C175.408 20.6763 175.61 20.8091 175.676 20.9448ZM180.323 18.9933H177.698V19.868H180.256V20.8091H177.698V21.7502H180.323V22.7606H176.551V17.983H180.323V18.9933ZM183.15 22.7633H180.995V21.753H183.15C183.352 21.753 183.488 21.753 183.62 21.6174C183.687 21.5509 183.756 21.4153 183.756 21.2797C183.756 21.144 183.69 21.0112 183.62 20.942C183.554 20.8756 183.418 20.8064 183.216 20.8064C182.139 20.7399 180.86 20.8064 180.86 19.3255C180.86 18.6529 181.264 17.911 182.477 17.911H184.698V19.0542H182.61C182.408 19.0542 182.272 19.0542 182.139 19.1206C182.003 19.1871 182.003 19.3227 182.003 19.4583C182.003 19.6604 182.139 19.7268 182.272 19.7933C182.408 19.8597 182.541 19.8597 182.676 19.8597H183.283C183.889 19.8597 184.293 19.9953 184.562 20.2638C184.764 20.4659 184.9 20.8036 184.9 21.2741C184.9 22.29 184.296 22.7633 183.15 22.7633ZM188.94 22.29C188.671 22.5585 188.2 22.7606 187.525 22.7606H185.37V21.7502H187.525C187.727 21.7502 187.863 21.7502 187.995 21.6146C188.062 21.5482 188.131 21.4125 188.131 21.2769C188.131 21.1413 188.065 21.0084 187.995 20.9392C187.929 20.8728 187.793 20.8036 187.591 20.8036C186.514 20.7372 185.235 20.8036 185.235 19.3227C185.235 18.6833 185.6 18.1048 186.503 17.9332C186.611 17.9193 186.724 17.9083 186.849 17.9083H189.07V19.0514H187.588H187.051H186.985C186.783 19.0514 186.647 19.0514 186.514 19.1179C186.448 19.1843 186.378 19.3199 186.378 19.4556C186.378 19.6576 186.445 19.7241 186.647 19.7905C186.783 19.8569 186.916 19.8569 187.051 19.8569H187.118H187.658C187.951 19.8569 188.175 19.8929 188.378 19.9649C188.563 20.0313 189.181 20.3081 189.319 21.0278C189.33 21.1025 189.341 21.1828 189.341 21.2686C189.344 21.6866 189.211 22.0215 188.94 22.29Z" fill="white"></path></g><path d="M259.155 31.8755H222.487C219.26 31.8755 216.643 29.2265 216.643 25.9548V6.84746C216.643 3.57848 219.26 0.926758 222.487 0.926758H259.155C262.382 0.926758 265 3.57848 265 6.84746V25.9548C265 29.2265 262.382 31.8755 259.155 31.8755Z" fill="#F1EFEA"></path><path d="M242.748 20.6748C246.994 20.696 250.872 17.3139 250.872 13.1996C250.872 8.70071 246.994 5.5918 242.748 5.5918H239.095C234.796 5.58915 231.258 8.70071 231.258 13.1996C231.258 17.3139 234.796 20.696 239.095 20.6748H242.748Z" fill="#004A98"></path><path d="M240.722 17.2048V9.03462C242.414 9.6633 243.616 11.2549 243.619 13.1197C243.616 14.9845 242.414 16.5735 240.722 17.2048ZM234.604 13.1197C234.607 11.2549 235.806 9.6686 237.498 9.03462V17.2022C235.806 16.5708 234.607 14.9845 234.604 13.1197ZM239.11 6.21484C235.183 6.21484 232 9.30519 232 13.1197C232 16.9316 235.183 20.0219 239.11 20.0219C243.039 20.0219 246.22 16.9316 246.223 13.1197C246.223 9.30784 243.039 6.2175 239.11 6.21484Z" fill="white"></path><path d="M223.133 26.1384C223.133 26.7565 223.589 26.8307 223.996 26.8307C225.786 26.8307 226.373 25.5203 226.373 24.3213C226.373 22.8173 225.379 21.7297 223.78 21.7297C223.439 21.7297 223.283 21.7536 223.133 21.7615V26.1384V26.1384ZM222.321 22.3637C222.321 21.6395 221.933 21.6872 221.559 21.6793V21.4697C221.881 21.4856 222.212 21.4856 222.537 21.4856C222.884 21.4856 223.357 21.4697 223.971 21.4697C226.119 21.4697 227.286 22.8597 227.286 24.2868C227.286 25.0826 226.805 27.0881 223.87 27.0881C223.447 27.0881 223.059 27.0721 222.668 27.0721C222.296 27.0721 221.93 27.0801 221.559 27.0881V26.8785C222.056 26.8307 222.296 26.8148 222.321 26.2657V22.3637V22.3637Z" fill="#004A98"></path><path d="M228.464 22.1704C228.248 22.1704 228.057 21.9767 228.057 21.7672C228.057 21.5656 228.257 21.3799 228.464 21.3799C228.68 21.3799 228.871 21.5497 228.871 21.7672C228.869 21.9847 228.688 22.1704 228.464 22.1704ZM227.576 26.8788H227.735C227.967 26.8788 228.131 26.8788 228.131 26.6136V24.4331C228.131 24.0803 228.008 24.0299 227.699 23.8707V23.7407C228.09 23.6267 228.554 23.4755 228.587 23.4516C228.645 23.4198 228.694 23.4118 228.738 23.4118C228.778 23.4118 228.795 23.4596 228.795 23.5259V26.6109C228.795 26.8762 228.978 26.8762 229.21 26.8762H229.35V27.0858C229.068 27.0858 228.778 27.0698 228.481 27.0698C228.183 27.0698 227.882 27.0778 227.576 27.0858V26.8788Z" fill="#004A98"></path><path d="M230.134 24.4811C230.134 24.184 230.044 24.1044 229.653 23.9505V23.7967C230.008 23.6853 230.347 23.5792 230.746 23.4094C230.771 23.4094 230.795 23.4253 230.795 23.489V24.0115C231.268 23.6826 231.675 23.4067 232.23 23.4067C232.935 23.4067 233.184 23.9054 233.184 24.5341V26.6085C233.184 26.8738 233.367 26.8738 233.599 26.8738H233.749V27.0833C233.459 27.0833 233.167 27.0674 232.869 27.0674C232.571 27.0674 232.271 27.0754 231.973 27.0833V26.8738H232.123C232.356 26.8738 232.52 26.8738 232.52 26.6085V24.5262C232.52 24.0673 232.23 23.8418 231.757 23.8418C231.492 23.8418 231.069 24.0513 230.795 24.2291V26.6112C230.795 26.8764 230.978 26.8764 231.211 26.8764H231.358V27.086C231.069 27.086 230.779 27.0701 230.478 27.0701C230.18 27.0701 229.883 27.078 229.582 27.086V26.8764H229.732C229.965 26.8764 230.129 26.8764 230.129 26.6112V24.4811H230.134Z" fill="#004A98"></path><path d="M235.848 24.6082C236.056 24.6082 236.08 24.5048 236.08 24.4066C236.08 23.9955 235.824 23.6666 235.359 23.6666C234.854 23.6666 234.507 24.0273 234.405 24.6082H235.848V24.6082ZM234.381 24.8656C234.364 24.9372 234.364 25.0592 234.381 25.3324C234.43 26.0964 234.936 26.7251 235.6 26.7251C236.056 26.7251 236.414 26.4837 236.72 26.1866L236.835 26.3006C236.452 26.7914 235.982 27.2105 235.302 27.2105C233.982 27.2105 233.717 25.9717 233.717 25.4571C233.717 23.8788 234.81 23.4146 235.392 23.4146C236.064 23.4146 236.785 23.8257 236.794 24.6772C236.794 24.725 236.794 24.7727 236.785 24.8231L236.712 24.8709H234.381V24.8656Z" fill="#004A98"></path><path d="M236.984 26.8791H237.208C237.441 26.8791 237.605 26.8791 237.605 26.6139V24.3538C237.605 24.1045 237.299 24.0567 237.173 23.9904V23.871C237.777 23.6217 238.11 23.4121 238.187 23.4121C238.236 23.4121 238.26 23.436 238.26 23.5182V24.2424H238.28C238.487 23.9294 238.834 23.4148 239.34 23.4148C239.547 23.4148 239.813 23.55 239.813 23.8418C239.813 24.0594 239.657 24.253 239.425 24.253C239.168 24.253 239.168 24.0594 238.878 24.0594C238.736 24.0594 238.274 24.245 238.274 24.7278V26.6192C238.274 26.8844 238.441 26.8844 238.67 26.8844H239.135V27.094C238.679 27.086 238.332 27.0781 237.976 27.0781C237.637 27.0781 237.288 27.086 236.99 27.094V26.8791H236.984Z" fill="#004A98"></path><path d="M240.175 25.9693C240.284 26.4998 240.614 26.9508 241.218 26.9508C241.707 26.9508 241.888 26.6616 241.888 26.3804C241.888 25.4308 240.082 25.7358 240.082 24.4413C240.082 23.9904 240.456 23.4121 241.366 23.4121C241.631 23.4121 241.986 23.4837 242.311 23.6455L242.369 24.4652H242.177C242.095 23.9586 241.803 23.6694 241.273 23.6694C240.94 23.6694 240.625 23.8551 240.625 24.1999C240.625 25.1416 242.549 24.8525 242.549 26.1152C242.549 26.6457 242.109 27.2107 241.123 27.2107C240.792 27.2107 240.401 27.0966 240.112 26.9375L240.021 26.0117L240.175 25.9693Z" fill="#004A98"></path><path d="M250.036 22.9265H249.829C249.67 21.9848 248.982 21.6081 248.055 21.6081C247.102 21.6081 245.716 22.2288 245.716 24.1573C245.716 25.7834 246.91 26.9506 248.186 26.9506C249.006 26.9506 249.687 26.4041 249.853 25.5579L250.045 25.6057L249.853 26.7808C249.506 26.9904 248.569 27.2079 248.02 27.2079C246.08 27.2079 244.855 25.993 244.855 24.1812C244.855 22.5312 246.372 21.3481 247.995 21.3481C248.667 21.3481 249.312 21.5577 249.952 21.7752L250.036 22.9265Z" fill="#004A98"></path><path d="M250.338 26.879H250.494C250.726 26.879 250.893 26.879 250.893 26.6137V22.1307C250.893 21.6081 250.77 21.5922 250.453 21.502V21.372C250.783 21.2686 251.133 21.1227 251.305 21.0245C251.395 20.9768 251.464 20.937 251.488 20.937C251.537 20.937 251.557 20.9848 251.557 21.0511V26.611C251.557 26.8763 251.74 26.8763 251.972 26.8763H252.111V27.0859C251.83 27.0859 251.54 27.07 251.242 27.07C250.945 27.07 250.647 27.0779 250.338 27.0859V26.879V26.879Z" fill="#004A98"></path><path d="M255.658 26.646C255.658 26.7919 255.748 26.7998 255.89 26.7998C255.989 26.7998 256.114 26.7919 256.224 26.7919V26.9616C255.866 26.9935 255.188 27.1632 255.03 27.211L254.989 27.1871V26.5319C254.491 26.9271 254.112 27.2083 253.521 27.2083C253.073 27.2083 252.609 26.9271 252.609 26.2507V24.1896C252.609 23.98 252.576 23.7784 252.111 23.7386V23.5874C252.409 23.5795 253.07 23.5317 253.18 23.5317C253.273 23.5317 253.273 23.5874 253.273 23.7652V25.8396C253.273 26.0809 253.273 26.7733 253.994 26.7733C254.275 26.7733 254.65 26.5637 254.997 26.2825V24.118C254.997 23.9562 254.598 23.8686 254.303 23.789V23.6431C255.049 23.5954 255.513 23.5317 255.595 23.5317C255.664 23.5317 255.664 23.5874 255.664 23.6776V26.646H255.658Z" fill="#004A98"></path><path d="M257.308 26.1787C257.308 26.4837 257.606 27.001 258.163 27.001C259.051 27.001 259.423 26.1548 259.423 25.4386C259.423 24.5685 258.742 23.847 258.098 23.847C257.789 23.847 257.535 24.0406 257.311 24.2263V26.1787H257.308ZM257.308 23.9902C257.638 23.717 258.087 23.4119 258.543 23.4119C259.505 23.4119 260.084 24.2263 260.084 25.1017C260.084 26.1548 259.289 27.2106 258.103 27.2106C257.491 27.2106 257.166 27.0169 256.95 26.9294L256.701 27.1124L256.526 27.0249C256.6 26.55 256.641 26.0832 256.641 25.5924V22.1307C256.641 21.6081 256.515 21.5922 256.201 21.502V21.372C256.535 21.2686 256.882 21.1227 257.056 21.0245C257.147 20.9768 257.212 20.937 257.24 20.937C257.289 20.937 257.305 20.9848 257.305 21.0511V23.9902H257.308Z" fill="#004A98"></path><path d="M330.724 31.8755H294.056C290.829 31.8755 288.211 29.2265 288.211 25.9548V6.84746C288.211 3.57848 290.829 0.926758 294.056 0.926758H330.724C333.951 0.926758 336.569 3.57848 336.569 6.84746V25.9548C336.569 29.2265 333.951 31.8755 330.724 31.8755Z" fill="#69197C"></path><path d="M314.167 20.6409C318.067 20.6604 321.628 17.554 321.628 13.7752C321.628 9.64305 318.067 6.7876 314.167 6.7876H310.811C306.863 6.78516 303.613 9.64305 303.613 13.7752C303.613 17.554 306.863 20.6604 310.811 20.6409H314.167Z" fill="#004A98"></path><path d="M312.308 17.4534V9.94926C313.862 10.5267 314.966 11.9885 314.968 13.7013C314.966 15.4141 313.862 16.8735 312.308 17.4534ZM306.689 13.7013C306.691 11.9885 307.793 10.5316 309.347 9.94926V17.4509C307.793 16.8711 306.691 15.4141 306.689 13.7013ZM310.827 7.35938C307.221 7.35938 304.297 10.1978 304.297 13.7013C304.297 17.2024 307.221 20.0408 310.827 20.0408C314.436 20.0408 317.358 17.2024 317.36 13.7013C317.36 10.2002 314.436 7.36181 310.827 7.35938Z" fill="white"></path><path d="M326.259 31.043H298.704C297.954 31.043 297.344 30.4502 297.344 29.7226V2.9722C297.344 2.24466 297.954 1.65186 298.704 1.65186H326.266C327.015 1.65186 327.626 2.24466 327.626 2.9722V29.7294C327.619 30.4502 327.008 31.043 326.259 31.043Z" fill="#69197C"></path><path d="M319.896 20.4265C318.814 20.5073 317.731 20.5882 316.649 20.6893C315.983 20.7499 315.323 20.8442 314.63 20.925C314.699 20.4534 314.768 20.0156 314.845 19.5441C314.935 19.6114 314.983 19.6451 315.032 19.672C315.698 20.1301 316.337 20.0695 316.878 19.4834C317.294 19.0321 317.523 18.473 317.697 17.9003C317.974 16.991 318.162 16.0748 317.905 15.1249C317.676 14.3031 316.857 14.0943 316.219 14.6938C316.094 14.8151 315.962 14.9296 315.851 15.0306C315.823 14.9363 315.823 14.7949 315.754 14.7275C315.448 14.4311 314.942 14.5793 314.858 14.9835C314.623 16.1422 314.401 17.3009 314.151 18.4528C314.123 18.5943 313.998 18.7356 313.887 18.8435C313.811 18.9108 313.679 18.9243 313.568 18.958C313.526 18.8435 313.45 18.729 313.457 18.6212C313.505 18.2102 313.575 17.8061 313.658 17.4019C313.804 16.6945 313.963 15.9939 314.109 15.2933C314.165 15.0374 314.054 14.8757 313.776 14.8083C313.38 14.714 313.311 14.741 313.061 15.1856C312.374 14.7949 311.882 14.8622 311.32 15.4281C310.841 15.9063 310.549 16.4924 310.32 17.1122C310.008 17.9677 309.842 18.8367 310.057 19.7327C310.154 20.1301 310.376 20.4265 310.799 20.5478C311.257 20.6757 311.639 20.5546 311.958 20.2312C312.097 20.0897 312.208 19.9145 312.34 19.7394C312.43 20.056 312.624 20.312 312.964 20.2918C313.263 20.2716 313.547 20.1369 313.845 20.0493C313.797 20.2918 313.721 20.541 313.7 20.797C313.679 21.0261 313.561 21.0934 313.346 21.1271C312.138 21.3023 310.931 21.4976 309.717 21.6862C309.335 21.7469 308.953 21.8143 308.523 21.8883C308.697 21.2821 308.863 20.7296 309.016 20.1773C309.446 18.6751 309.883 17.1661 310.3 15.6639C310.411 15.2732 310.237 15.1182 309.835 15.2125C309.356 15.3271 309.057 15.6167 308.891 16.0748C308.558 16.9842 308.218 17.8936 307.843 18.7896C307.739 19.0455 307.51 19.2611 307.295 19.4565C307.198 19.5441 306.948 19.5912 306.851 19.5306C306.747 19.4699 306.684 19.2544 306.698 19.1129C306.719 18.8367 306.802 18.5672 306.872 18.2978C307.024 17.7454 307.212 17.1998 307.344 16.6406C307.427 16.2769 307.121 15.9872 306.684 15.967C306.4 15.9536 306.323 16.0883 306.303 16.5127C306.296 16.7215 306.247 16.9303 306.185 17.1257C306.088 17.4288 305.942 17.7185 305.859 18.0216C305.699 18.5943 305.539 19.1668 305.449 19.7529C305.38 20.184 305.477 20.6084 305.893 20.8644C306.317 21.1204 306.733 21.0126 307.108 20.7431C307.316 20.5949 307.51 20.4131 307.746 20.2244C307.524 20.8779 307.323 21.4976 307.101 22.1106C307.066 22.1982 306.948 22.2723 306.851 22.3195C306.317 22.6024 305.748 22.8381 305.241 23.1683C304.103 23.916 303.305 24.913 303.027 26.2468C302.903 26.8329 303.014 27.3651 303.52 27.749C304.041 28.1465 304.61 28.0858 305.165 27.8232C305.706 27.5672 306.088 27.1428 306.448 26.6914C307.177 25.7753 307.6 24.7109 307.961 23.6197C308.03 23.4108 308.135 23.3098 308.357 23.2626C309.606 23.0201 310.848 22.7641 312.097 22.5216C312.506 22.4407 312.923 22.3868 313.36 22.3195C313.367 22.461 313.346 22.5687 313.38 22.6496C313.45 22.7978 313.533 22.9999 313.658 23.0403C313.783 23.0807 314.005 22.9931 314.116 22.892C314.241 22.7775 314.324 22.5889 314.366 22.4137C314.407 22.2251 314.505 22.1645 314.678 22.1376C315.816 21.9961 316.947 21.8546 318.085 21.7065C318.758 21.6189 319.438 21.5447 320.104 21.4236C320.451 21.3629 320.562 21.0664 320.424 20.7566C320.333 20.5141 320.146 20.4063 319.896 20.4265ZM315.185 18.6144C315.393 17.86 315.587 17.0987 315.837 16.3577C315.927 16.1017 316.128 15.8592 316.337 15.6639C316.572 15.4281 316.815 15.5089 316.899 15.8323C316.94 16.0007 316.954 16.1691 316.968 16.2635C316.933 17.0381 316.718 17.6982 316.406 18.318C316.219 18.6818 315.948 18.9715 315.462 18.9311C315.261 18.9108 315.122 18.83 315.185 18.6144ZM312.888 16.2971C312.631 17.1391 312.347 17.9745 312.069 18.803C312.034 18.9108 311.951 19.0052 311.875 19.086C311.667 19.3015 311.368 19.2746 311.243 19.0119C311.146 18.803 311.104 18.5606 311.063 18.3988C311.174 17.5568 311.347 16.8226 311.958 16.2769C312.111 16.1354 312.312 16.0344 312.513 15.9602C312.749 15.8726 312.964 16.0546 312.888 16.2971ZM305.179 26.3412C305.04 26.4961 304.873 26.6443 304.686 26.7521C304.575 26.8127 304.36 26.8531 304.283 26.7924C304.186 26.7184 304.124 26.5162 304.152 26.3951C304.228 26.1121 304.332 25.8292 304.485 25.5732C304.97 24.7446 305.678 24.1451 306.65 23.7139C306.268 24.7109 305.838 25.5866 305.179 26.3412ZM319.272 17.5905C319.306 17.4154 319.397 17.3345 319.598 17.2941C320.736 17.065 321.61 16.1691 321.811 15.0778C321.936 14.384 321.52 13.8854 320.798 13.8585C320.403 13.8451 320.056 13.9596 319.764 14.2222C318.619 15.2462 318.175 16.5598 318.057 18.0081C318.085 18.2507 318.099 18.4797 318.134 18.7087C318.273 19.4969 318.904 19.8943 319.695 19.699C320.368 19.5306 320.896 19.1399 321.367 18.6548C321.68 18.3315 321.721 18.1833 321.534 17.7858C321.381 17.4558 321.243 17.449 320.972 17.705C320.715 17.9542 320.437 18.1833 320.139 18.3854C319.917 18.5336 319.64 18.6346 319.39 18.446C319.133 18.2574 319.195 17.9677 319.23 17.6982C319.237 17.6646 319.265 17.6309 319.272 17.5905ZM320.236 15.0912C320.34 14.9363 320.542 14.7881 320.701 14.9228C320.798 15.0037 320.819 15.2664 320.771 15.4079C320.576 15.9199 320.146 16.1825 319.626 16.3308C319.591 16.3038 319.556 16.2836 319.522 16.2567C319.758 15.866 319.98 15.4753 320.236 15.0912Z" fill="white"></path><path d="M313.485 4.73682C311.174 4.73682 309.301 6.55566 309.301 8.7989C309.301 9.86999 309.731 10.84 310.425 11.5676L310.328 13.2854C310.321 13.4403 310.501 13.5413 310.633 13.4538L311.951 12.5781C312.43 12.7599 312.944 12.861 313.485 12.861C315.796 12.861 317.669 11.0421 317.669 8.7989C317.669 6.55566 315.796 4.73682 313.485 4.73682ZM313.79 10.4089C313.686 10.5841 313.534 10.7188 313.353 10.8131C313.173 10.9007 312.951 10.9478 312.701 10.9478C312.305 10.9478 311.986 10.8333 311.75 10.6043C311.514 10.3752 311.389 10.0721 311.382 9.68811C311.382 9.68811 311.376 9.60727 311.431 9.54664C311.48 9.49948 311.542 9.47254 311.632 9.4658C311.736 9.4658 311.82 9.48601 311.868 9.53317C311.91 9.57359 311.924 9.62074 311.917 9.64768C311.938 9.8161 311.979 9.95082 312.042 10.0451C312.104 10.1394 312.194 10.2136 312.312 10.2742C312.43 10.3348 312.569 10.3618 312.722 10.3618C312.937 10.3618 313.103 10.3146 313.221 10.2203C313.332 10.126 313.388 10.0047 313.388 9.85652C313.388 9.76894 313.367 9.69484 313.325 9.62747C313.284 9.56685 313.221 9.51296 313.145 9.47254C313.055 9.42538 312.847 9.35802 312.534 9.27045C312.236 9.1896 312.035 9.10204 311.903 9.02119C311.771 8.93363 311.667 8.8191 311.598 8.68437C311.521 8.54964 311.487 8.39471 311.487 8.2263C311.487 7.92316 311.591 7.6739 311.799 7.47855C312.007 7.2832 312.291 7.18888 312.638 7.18888C312.874 7.18888 313.089 7.23603 313.263 7.32361C313.443 7.41119 313.589 7.54591 313.686 7.71433C313.783 7.88274 313.839 8.07809 313.846 8.30713C313.846 8.31387 313.853 8.39471 313.79 8.46208C313.763 8.49576 313.7 8.53617 313.596 8.53617C313.492 8.54291 313.409 8.51596 313.353 8.46881C313.298 8.41491 313.291 8.35429 313.291 8.34755C313.27 8.14545 313.207 7.99725 313.103 7.90295C312.999 7.80863 312.84 7.76148 312.638 7.76148C312.43 7.76148 312.278 7.8019 312.173 7.88948C312.076 7.97031 312.028 8.07136 312.028 8.19935C312.028 8.32061 312.062 8.40144 312.132 8.46881C312.187 8.51596 312.326 8.59006 312.687 8.68437C312.992 8.76522 313.201 8.83258 313.332 8.8932C313.527 8.98751 313.679 9.11551 313.783 9.27045C313.887 9.42538 313.936 9.614 313.936 9.82957C313.95 10.0384 313.894 10.2338 313.79 10.4089ZM316.281 7.79516L314.665 10.6514C314.616 10.739 314.512 10.7996 314.408 10.7996C314.359 10.7996 314.311 10.7862 314.269 10.7659C314.13 10.6918 314.075 10.5167 314.151 10.382L315.768 7.5257C315.844 7.39097 316.025 7.33708 316.163 7.41118C316.302 7.48529 316.358 7.66043 316.281 7.79516Z" fill="#01D0B5"></path><path d="M402.294 31.8755H365.626C362.399 31.8755 359.781 29.2265 359.781 25.9548V6.84746C359.781 3.57848 362.399 0.926758 365.626 0.926758H402.294C405.521 0.926758 408.139 3.57848 408.139 6.84746V25.9548C408.139 29.2265 405.521 31.8755 402.294 31.8755Z" fill="white"></path><path d="M385.511 19.4653C388.66 19.481 391.535 16.9729 391.535 13.9219C391.535 10.5857 388.66 8.28027 385.511 8.28027H382.802C379.614 8.27831 376.99 10.5857 376.99 13.9219C376.99 16.9729 379.614 19.481 382.802 19.4653H385.511Z" fill="#004A98"></path><path d="M384.009 16.8924V10.8337C385.263 11.2999 386.155 12.4802 386.157 13.8631C386.155 15.2459 385.263 16.4242 384.009 16.8924ZM379.472 13.8631C379.474 12.4802 380.364 11.3039 381.618 10.8337V16.8905C380.364 16.4223 379.474 15.2459 379.472 13.8631ZM382.814 8.74268C379.902 8.74268 377.541 11.0344 377.541 13.8631C377.541 16.6898 379.902 18.9815 382.814 18.9815C385.727 18.9815 388.086 16.6898 388.088 13.8631C388.088 11.0363 385.727 8.74464 382.814 8.74268Z" fill="white"></path><path d="M384.432 4.13379C391.191 4.13379 396.671 9.44717 396.671 15.9955C396.671 22.5438 391.191 27.8571 384.432 27.8571C382.954 27.8571 381.641 27.6035 380.327 27.1495C378.994 26.689 377.79 26.8024 376.773 27.0361C376.264 27.1495 375.851 27.3364 375.398 27.4166C375.006 27.4833 374.627 27.4566 374.256 27.3231C373.905 27.1963 373.562 26.9827 373.245 26.6623C372.049 25.4807 372.902 24.1792 373.128 22.8307C373.28 21.9363 373.225 20.9016 372.86 19.8737C372.427 18.6655 372.193 17.3572 372.193 15.9955C372.193 9.44717 377.673 4.13379 384.432 4.13379Z" fill="url(#paint0_linear_412_19329)"></path><path d="M384.432 4.13379C391.191 4.13379 396.671 9.44717 396.671 15.9955C396.671 22.5438 391.191 27.8571 384.432 27.8571C382.954 27.8571 381.641 27.6035 380.327 27.1495C378.994 26.689 377.79 26.8024 376.773 27.0361C376.264 27.1495 375.851 27.3364 375.398 27.4166C375.006 27.4833 374.627 27.4566 374.256 27.3231C373.905 27.1963 373.562 26.9827 373.245 26.6623C372.049 25.4807 372.902 24.1792 373.128 22.8307C373.28 21.9363 373.225 20.9016 372.86 19.8737C372.427 18.6655 372.193 17.3572 372.193 15.9955C372.193 9.44717 377.673 4.13379 384.432 4.13379Z" fill="url(#paint1_linear_412_19329)"></path><path fill-rule="evenodd" clip-rule="evenodd" d="M378.841 14.1996C379.591 14.1996 380.196 15.0474 380.196 16.102C380.196 17.15 379.591 18.0044 378.841 18.0044C378.092 18.0044 377.487 17.1567 377.487 16.102C377.487 15.0474 378.092 14.1996 378.841 14.1996ZM376.05 13.9393V20.4675C376.05 20.4675 376.504 21.7959 377.535 20.808L377.576 19.0791C377.576 19.0791 377.741 18.6519 378.223 18.692C378.223 18.692 379.295 19.0057 380.12 18.7053C381.922 18.0511 382.135 15.5747 381.166 14.1395C380.602 13.3051 379.46 12.9514 378.085 13.4787C378.085 13.4787 377.7 13.6189 377.102 13.3919C376.497 13.1649 376.084 13.5788 376.043 13.8659V13.9393H376.05Z" fill="white"></path><path fill-rule="evenodd" clip-rule="evenodd" d="M382.672 11.503V18.7054C382.672 18.7855 382.713 18.8255 382.796 18.8255H384.081C384.164 18.8255 384.205 18.7855 384.205 18.7054V11.503C384.205 11.4229 384.164 11.3828 384.081 11.3828H382.796C382.713 11.3828 382.672 11.4229 382.672 11.503Z" fill="white"></path><path fill-rule="evenodd" clip-rule="evenodd" d="M385.415 13.4321H386.701C386.769 13.4321 386.824 13.4855 386.824 13.5523V18.7054C386.824 18.7722 386.769 18.8256 386.701 18.8256H385.415C385.346 18.8256 385.291 18.7722 385.291 18.7054V13.5523C385.291 13.4855 385.353 13.4321 385.415 13.4321Z" fill="white"></path><path fill-rule="evenodd" clip-rule="evenodd" d="M386.048 11.5093C386.475 11.5093 386.825 11.8364 386.825 12.2368C386.825 12.6374 386.475 12.9645 386.048 12.9645C385.622 12.9645 385.271 12.6374 385.271 12.2368C385.271 11.8364 385.615 11.5093 386.048 11.5093Z" fill="#DD77C0"></path><path fill-rule="evenodd" clip-rule="evenodd" d="M389.473 15.0011V18.3119C389.473 18.6057 389.225 18.846 388.923 18.846H388.524C388.221 18.846 387.974 18.6057 387.974 18.3119V15.3482C387.926 14.4671 387.692 13.1187 389.177 13.4859C390.064 13.6728 390.057 13.4659 390.745 13.3256C391.171 13.2389 391.976 13.1788 392.478 13.7729C392.87 14.2335 392.815 14.4738 392.815 15.0011V18.3119C392.815 18.6057 392.567 18.846 392.264 18.846H391.866C391.563 18.846 391.316 18.6057 391.316 18.3119V15.0011C391.316 14.4938 390.882 14.1133 390.332 14.1333C389.837 14.1534 389.473 14.6206 389.473 15.0011Z" fill="white"></path><defs><linearGradient id="paint0_linear_412_19329" x1="372.193" y1="15.9973" x2="396.671" y2="15.9973" gradientUnits="userSpaceOnUse"><stop stop-color="#4A82F6"></stop><stop offset="1" stop-color="#7EDDC8"></stop></linearGradient><linearGradient id="paint1_linear_412_19329" x1="375.63" y1="24.2415" x2="392.708" y2="7.22787" gradientUnits="userSpaceOnUse"><stop stop-color="#4A82F6"></stop><stop offset="1" stop-color="#7EDDC8"></stop></linearGradient><clipPath id="clip0_412_19329"><rect width="49.6472" height="30.9489" fill="white" transform="translate(71.5703 0.926758)"></rect></clipPath><clipPath id="clip1_412_19329"><rect width="49.0024" height="30.9489" fill="white" transform="translate(144.428 0.926758)"></rect></clipPath></defs></svg> 